<svg width="150" height="150" viewBox="0 0 150 150" fill="none" xmlns="http://www.w3.org/2000/svg"> <path d="M122 49.0301H99.03V26.0601L122 49.0301Z" fill="#CDD9E2"/> <path d="M122 49.0301H99.03V26.0601L122 49.0301Z" stroke="#CDD9E2" stroke-width="0.5" stroke-linejoin="round"/> <path d="M72.77 115.41H37.53C36.0634 115.41 34.6568 114.827 33.6197 113.79C32.5826 112.753 32 111.347 32 109.88V33.3501C32 31.8834 32.5826 30.4768 33.6197 29.4398C34.6568 28.4027 36.0634 27.8201 37.53 27.8201H98.9" stroke="#1F323D" stroke-width="0.75" stroke-linecap="round" stroke-linejoin="round"/> <path d="M119.59 49.3501V109.88C119.587 111.346 119.004 112.751 117.967 113.787C116.931 114.824 115.526 115.407 114.06 115.41" stroke="#1F323D" stroke-width="0.75" stroke-linecap="round" stroke-linejoin="round"/> <path d="M104.4 109.34C104.4 109.34 104.65 105.12 107.16 105.83C110.08 106.52 108.07 116.93 107.3 119.83C106.53 122.73 103.55 126.62 103.55 126.62V129.92H100.46L98.1899 126.62" stroke="#1F323D" stroke-width="0.75" stroke-linecap="round" stroke-linejoin="round"/> <path d="M96.93 126.64L94.45 129.94H87.68V126.64C87.68 126.64 78.2 118.09 80.43 114.4C82.23 111.51 85.25 114.77 85.25 114.77" stroke="#1F323D" stroke-width="0.75" stroke-linecap="round" stroke-linejoin="round"/> <path d="M92.5099 109.08C92.5099 109.08 91.2799 103.43 93.8199 103.21C96.3599 102.99 96.1099 108.82 96.1099 108.82" stroke="#1F323D" stroke-width="0.75" stroke-linecap="round" stroke-linejoin="round"/> <path d="M92.02 114.79V122.26" stroke="#1F323D" stroke-width="0.75" stroke-linecap="round" stroke-linejoin="round"/> <path d="M96.6599 114.79V122.26" stroke="#1F323D" stroke-width="0.75" stroke-linecap="round" stroke-linejoin="round"/> <path d="M101.29 114.79V122.26" stroke="#1F323D" stroke-width="0.75" stroke-linecap="round" stroke-linejoin="round"/> <path d="M86.51 113.72C86.51 113.72 84.51 106.03 86.91 105.22C89.31 104.41 90.19 109.08 90.19 109.08" stroke="#1F323D" stroke-width="0.75" stroke-linecap="round" stroke-linejoin="round"/> <path d="M98.4299 108.82C98.4299 108.82 98.5599 103.53 100.77 103.82C102.98 104.11 102.08 108.97 102.08 108.97" stroke="#1F323D" stroke-width="0.75" stroke-linecap="round" stroke-linejoin="round"/> <path d="M51 68.8901H102.78" stroke="#1F323D" stroke-width="0.75" stroke-linecap="round" stroke-linejoin="round"/> <path d="M51 80.54H103" stroke="#1F323D" stroke-width="0.75" stroke-linecap="round" stroke-linejoin="round"/> <path d="M51 56.96H103" stroke="#1F323D" stroke-width="0.75" stroke-linecap="round" stroke-linejoin="round"/> <path d="M51 92.0901H80.28" stroke="#1F323D" stroke-width="0.75" stroke-linecap="round" stroke-linejoin="round"/> </svg>